<?xml version="1.0" encoding="utf-8"?>
<!-- Generator: Adobe Illustrator 23.0.1, SVG Export Plug-In . SVG Version: 6.00 Build 0)  -->
<svg version="1.1" id="Layer_1" xmlns="http://www.w3.org/2000/svg" xmlns:xlink="http://www.w3.org/1999/xlink" x="0px" y="0px"
	 viewBox="0 0 802 178" style="enable-background:new 0 0 802 178;" xml:space="preserve">
<style type="text/css">
	.st0{fill:#F4F4F4;}
</style>
<g>
	<g>
		<g>
			<path class="st0" d="M140.73,90.97H97.96v26.9h14.8v36.86c0,2.16-0.17,4.12-0.49,5.9h28.08c0.25-2.56,0.38-5.25,0.38-8.05V90.97z
				"/>
			<path class="st0" d="M82.58,160.62c-0.32-1.78-0.49-3.74-0.49-5.9V51.69c0-12.37,5.11-18.56,15.33-18.56
				c10.22,0,15.33,6.19,15.33,18.56v18.02h27.98V53.57c0-15.24-3.77-26.94-11.3-35.11c-7.53-8.16-18.47-12.24-32.82-12.24
				c-14.35,0-25.29,4.08-32.82,12.24c-7.53,8.16-11.3,19.87-11.3,35.11v99c0,2.8,0.13,5.49,0.38,8.05H82.58z"/>
		</g>
		<path class="st0" d="M196.15,160.62v-44.1h10.22c6.81,0,11.61,1.71,14.39,5.11c2.78,3.41,4.17,9.42,4.17,18.02v20.96h29.59v-19.35
			c0-11.12-1.48-20-4.44-26.63c-2.96-6.63-8.03-11.03-15.2-13.18v-0.54c12.91-5.2,19.37-17.57,19.37-37.12V52.23
			c0-14.7-3.5-25.6-10.49-32.68c-6.99-7.08-18.12-10.63-33.36-10.63h-43.85v151.71H196.15z M196.15,35.82h13.45
			c5.2,0,9.01,1.53,11.43,4.57c2.42,3.05,3.63,7.98,3.63,14.8v14.53c0,7.17-1.48,12.29-4.44,15.33c-2.96,3.05-7.4,4.57-13.32,4.57
			h-10.76V35.82z"/>
		<path class="st0" d="M340.45,160.62h28.9L344.65,8.91h-40.08l-24.71,151.71h26.82 M323.12,41.73h0.54l13.18,93.08h-26.63
			L323.12,41.73z"/>
		<polygon class="st0" points="454.29,160.62 477.27,8.91 450.1,8.91 430.73,154.99 430.19,154.99 410.82,8.91 380.96,8.91 
			403.93,160.62 		"/>
		<rect x="498.25" y="8.91" class="st0" width="29.59" height="151.71"/>
		<polygon class="st0" points="579.76,160.62 609.35,160.62 609.35,35.82 640.28,35.82 640.28,8.91 548.82,8.91 548.82,35.82 
			579.76,35.82 		"/>
		<polygon class="st0" points="689.51,160.62 719.1,160.62 719.1,117.06 754.88,8.91 726.1,8.91 705.92,78.05 705.38,78.05 
			685.21,8.91 653.73,8.91 689.51,117.06 		"/>
	</g>
	<rect x="0" y="167.77" class="st0" width="802" height="10.01"/>
</g>
</svg>
